<?xml version="1.0" encoding="UTF-8" standalone="no"?>
<!DOCTYPE svg PUBLIC "-//W3C//DTD SVG 1.1//EN" "http://www.w3.org/Graphics/SVG/1.1/DTD/svg11.dtd">
<!-- Created with Vectornator (http://vectornator.io/) -->
<svg height="100%" stroke-miterlimit="10" style="fill-rule:nonzero;clip-rule:evenodd;stroke-linecap:round;stroke-linejoin:round;" version="1.1" viewBox="496.025 386.908 606.141 605.722" width="100%" xml:space="preserve" xmlns="http://www.w3.org/2000/svg" xmlns:vectornator="http://vectornator.io" xmlns:xlink="http://www.w3.org/1999/xlink">
<defs/>
<g id="Logo" vectornator:layerName="Logo">
<path d="M499.025 439.908C499.025 412.293 521.411 389.908 549.025 389.908L1049.17 389.908C1076.78 389.908 1099.17 412.293 1099.17 439.908L1099.17 939.629C1099.17 967.244 1076.78 989.629 1049.17 989.629L549.025 989.629C521.411 989.629 499.025 967.244 499.025 939.629L499.025 439.908Z" fill="#fddf19" fill-rule="nonzero" opacity="1" stroke="#000000" stroke-linecap="round" stroke-linejoin="miter" stroke-width="6" vectornator:layerName="Rectangle 1"/>
<g fill="#000000" opacity="1" stroke="none" vectornator:layerName="Text 2">
<path d="M835.221 907.306L840.171 907.306C843.911 907.306 847.248 906.72 850.181 905.546C853.115 904.373 855.59 902.76 857.606 900.706C859.623 898.653 861.163 896.215 862.226 893.391C863.29 890.568 863.821 887.47 863.821 884.096C863.821 880.796 863.271 877.716 862.171 874.856C861.071 871.996 859.513 869.54 857.496 867.486C855.48 865.433 853.005 863.82 850.071 862.646C847.138 861.473 843.838 860.886 840.171 860.886L835.221 860.886L835.221 907.306ZM813.661 842.626L845.561 842.626C851.208 842.626 856.506 843.763 861.456 846.036C866.406 848.31 870.733 851.335 874.436 855.111C878.14 858.888 881.055 863.288 883.181 868.311C885.308 873.335 886.371 878.596 886.371 884.096C886.371 889.523 885.326 894.748 883.236 899.771C881.146 904.795 878.25 909.213 874.546 913.026C870.843 916.84 866.516 919.883 861.566 922.156C856.616 924.43 851.281 925.566 845.561 925.566L813.661 925.566L813.661 842.626Z"/>
<path d="M939.501 889.156C938.841 886.37 937.485 884.133 935.431 882.446C933.378 880.76 930.885 879.916 927.951 879.916C924.871 879.916 922.36 880.723 920.416 882.336C918.473 883.95 917.245 886.223 916.731 889.156L939.501 889.156ZM916.181 900.706C916.181 909.286 920.215 913.576 928.281 913.576C932.608 913.576 935.871 911.816 938.071 908.296L957.321 908.296C953.435 921.203 943.718 927.656 928.171 927.656C923.405 927.656 919.041 926.941 915.081 925.511C911.121 924.081 907.73 922.046 904.906 919.406C902.083 916.766 899.901 913.613 898.361 909.946C896.821 906.28 896.051 902.173 896.051 897.626C896.051 892.933 896.785 888.698 898.251 884.921C899.718 881.145 901.808 877.936 904.521 875.296C907.235 872.656 910.516 870.621 914.366 869.191C918.216 867.761 922.561 867.046 927.401 867.046C932.168 867.046 936.458 867.761 940.271 869.191C944.085 870.621 947.311 872.693 949.951 875.406C952.591 878.12 954.608 881.438 956.001 885.361C957.395 889.285 958.091 893.703 958.091 898.616L958.091 900.706L916.181 900.706Z"/>
<path d="M982.401 869.136L995.821 898.066L1009.46 869.136L1031.68 869.136L1002.31 925.566L989.001 925.566L959.961 869.136L982.401 869.136Z"/>
</g>
<g opacity="1" vectornator:layerName="Group 2">
<path d="M1059.41 791.283C1048.36 791.283 1039.41 800.237 1039.41 811.283C1039.41 822.328 1048.36 831.283 1059.41 831.283L1099.16 831.283L1099.16 791.283L1059.41 791.283Z" fill="#000000" fill-rule="nonzero" opacity="1" stroke="#000000" stroke-linecap="butt" stroke-linejoin="miter" stroke-width="1.65053" vectornator:layerName="Curve 1"/>
<path d="M1046.51 811.283C1046.51 804.379 1052.29 798.783 1059.41 798.783C1066.54 798.783 1072.32 804.379 1072.32 811.283C1072.32 818.186 1066.54 823.783 1059.41 823.783C1052.29 823.783 1046.51 818.186 1046.51 811.283Z" fill="#ffffff" fill-rule="nonzero" opacity="1" stroke="#000000" stroke-linecap="butt" stroke-linejoin="miter" stroke-width="1.65053" vectornator:layerName="Oval 14"/>
</g>
<g opacity="1" vectornator:layerName="Group 3">
<path d="M1057.56 724.864C1046.51 724.864 1037.56 733.818 1037.56 744.864C1037.56 755.91 1046.51 764.864 1057.56 764.864L1097.31 764.864L1097.31 724.864L1057.56 724.864Z" fill="#000000" fill-rule="nonzero" opacity="1" stroke="#000000" stroke-linecap="butt" stroke-linejoin="miter" stroke-width="1.65053" vectornator:layerName="Curve 1"/>
<path d="M1044.66 744.864C1044.66 737.96 1050.43 732.364 1057.56 732.364C1064.69 732.364 1070.47 737.96 1070.47 744.864C1070.47 751.767 1064.69 757.364 1057.56 757.364C1050.43 757.364 1044.66 751.767 1044.66 744.864Z" fill="#ffffff" fill-rule="nonzero" opacity="1" stroke="#000000" stroke-linecap="butt" stroke-linejoin="miter" stroke-width="1.65053" vectornator:layerName="Oval 14"/>
</g>
<g opacity="1" vectornator:layerName="Group 4">
<path d="M1057.56 662.015C1046.51 662.015 1037.56 670.969 1037.56 682.015C1037.56 693.06 1046.51 702.015 1057.56 702.015L1097.31 702.015L1097.31 662.015L1057.56 662.015Z" fill="#000000" fill-rule="nonzero" opacity="1" stroke="#000000" stroke-linecap="butt" stroke-linejoin="miter" stroke-width="1.65053" vectornator:layerName="Curve 1"/>
<path d="M1044.66 682.015C1044.66 675.111 1050.43 669.515 1057.56 669.515C1064.69 669.515 1070.47 675.111 1070.47 682.015C1070.47 688.918 1064.69 694.515 1057.56 694.515C1050.43 694.515 1044.66 688.918 1044.66 682.015Z" fill="#ffffff" fill-rule="nonzero" opacity="1" stroke="#000000" stroke-linecap="butt" stroke-linejoin="miter" stroke-width="1.65053" vectornator:layerName="Oval 14"/>
</g>
<g opacity="1" vectornator:layerName="Group 5">
<path d="M1057.56 602.015C1046.51 602.015 1037.56 610.969 1037.56 622.015C1037.56 633.06 1046.51 642.015 1057.56 642.015L1097.31 642.015L1097.31 602.015L1057.56 602.015Z" fill="#000000" fill-rule="nonzero" opacity="1" stroke="#000000" stroke-linecap="butt" stroke-linejoin="miter" stroke-width="1.65053" vectornator:layerName="Curve 1"/>
<path d="M1044.66 622.015C1044.66 615.111 1050.43 609.515 1057.56 609.515C1064.69 609.515 1070.47 615.111 1070.47 622.015C1070.47 628.918 1064.69 634.515 1057.56 634.515C1050.43 634.515 1044.66 628.918 1044.66 622.015Z" fill="#ffffff" fill-rule="nonzero" opacity="1" stroke="#000000" stroke-linecap="butt" stroke-linejoin="miter" stroke-width="1.65053" vectornator:layerName="Oval 14"/>
</g>
<g opacity="1" vectornator:layerName="Group 6">
<path d="M1057.56 534.86C1046.51 534.86 1037.56 543.814 1037.56 554.86C1037.56 565.906 1046.51 574.86 1057.56 574.86L1097.31 574.86L1097.31 534.86L1057.56 534.86Z" fill="#000000" fill-rule="nonzero" opacity="1" stroke="#000000" stroke-linecap="butt" stroke-linejoin="miter" stroke-width="1.65053" vectornator:layerName="Curve 1"/>
<path d="M1044.66 554.86C1044.66 547.956 1050.43 542.36 1057.56 542.36C1064.69 542.36 1070.47 547.956 1070.47 554.86C1070.47 561.763 1064.69 567.36 1057.56 567.36C1050.43 567.36 1044.66 561.763 1044.66 554.86Z" fill="#ffffff" fill-rule="nonzero" opacity="1" stroke="#000000" stroke-linecap="butt" stroke-linejoin="miter" stroke-width="1.65053" vectornator:layerName="Oval 14"/>
</g>
<g opacity="1" vectornator:layerName="Group 7">
<path d="M1057.56 472.908C1046.51 472.908 1037.56 481.862 1037.56 492.908C1037.56 503.953 1046.51 512.908 1057.56 512.908L1097.31 512.908L1097.31 472.908L1057.56 472.908Z" fill="#000000" fill-rule="nonzero" opacity="1" stroke="#000000" stroke-linecap="butt" stroke-linejoin="miter" stroke-width="1.65053" vectornator:layerName="Curve 1"/>
<path d="M1044.66 492.908C1044.66 486.004 1050.43 480.408 1057.56 480.408C1064.69 480.408 1070.47 486.004 1070.47 492.908C1070.47 499.811 1064.69 505.408 1057.56 505.408C1050.43 505.408 1044.66 499.811 1044.66 492.908Z" fill="#ffffff" fill-rule="nonzero" opacity="1" stroke="#000000" stroke-linecap="butt" stroke-linejoin="miter" stroke-width="1.65053" vectornator:layerName="Oval 14"/>
</g>
<g opacity="1" vectornator:layerName="Group 8">
<path d="M539.289 831.283C550.335 831.283 559.289 822.328 559.289 811.283C559.289 800.237 550.335 791.283 539.289 791.283L499.539 791.283L499.539 831.283L539.289 831.283Z" fill="#000000" fill-rule="nonzero" opacity="1" stroke="#000000" stroke-linecap="butt" stroke-linejoin="miter" stroke-width="1.65053" vectornator:layerName="Curve 1"/>
<path d="M552.191 811.283C552.191 818.186 546.412 823.783 539.285 823.783C532.157 823.783 526.379 818.186 526.379 811.283C526.379 804.379 532.157 798.783 539.285 798.783C546.412 798.783 552.191 804.379 552.191 811.283Z" fill="#ffffff" fill-rule="nonzero" opacity="1" stroke="#000000" stroke-linecap="butt" stroke-linejoin="miter" stroke-width="1.65053" vectornator:layerName="Oval 14"/>
</g>
<g opacity="1" vectornator:layerName="Group 10">
<path d="M538.807 512.908C549.852 512.89 558.793 503.922 558.775 492.876C558.758 481.831 549.79 472.89 538.744 472.908L498.994 472.97L499.057 512.97L538.807 512.908Z" fill="#000000" fill-rule="nonzero" opacity="1" stroke="#000000" stroke-linecap="butt" stroke-linejoin="miter" stroke-width="1.65053" vectornator:layerName="Curve 1"/>
<path d="M551.676 492.887C551.687 499.791 545.918 505.396 538.79 505.408C531.663 505.419 525.876 499.831 525.865 492.928C525.854 486.024 531.623 480.419 538.751 480.408C545.879 480.396 551.666 485.984 551.676 492.887Z" fill="#ffffff" fill-rule="nonzero" opacity="1" stroke="#000000" stroke-linecap="butt" stroke-linejoin="miter" stroke-width="1.65053" vectornator:layerName="Oval 14"/>
</g>
<g opacity="1" vectornator:layerName="Group 11">
<path d="M539.352 574.797C550.398 574.78 559.338 565.812 559.321 554.766C559.303 543.72 550.335 534.78 539.289 534.797L499.539 534.86L499.602 574.86L539.352 574.797Z" fill="#000000" fill-rule="nonzero" opacity="1" stroke="#000000" stroke-linecap="butt" stroke-linejoin="miter" stroke-width="1.65053" vectornator:layerName="Curve 1"/>
<path d="M552.222 554.777C552.233 561.681 546.463 567.286 539.336 567.297C532.208 567.309 526.421 561.721 526.41 554.818C526.399 547.914 532.169 542.309 539.296 542.297C546.424 542.286 552.211 547.874 552.222 554.777Z" fill="#ffffff" fill-rule="nonzero" opacity="1" stroke="#000000" stroke-linecap="butt" stroke-linejoin="miter" stroke-width="1.65053" vectornator:layerName="Oval 14"/>
</g>
<g opacity="1" vectornator:layerName="Group 12">
<path d="M539.352 641.952C550.398 641.935 559.338 632.966 559.321 621.921C559.303 610.875 550.335 601.935 539.289 601.952L499.539 602.015L499.602 642.015L539.352 641.952Z" fill="#000000" fill-rule="nonzero" opacity="1" stroke="#000000" stroke-linecap="butt" stroke-linejoin="miter" stroke-width="1.65053" vectornator:layerName="Curve 1"/>
<path d="M552.222 621.932C552.233 628.835 546.463 634.441 539.336 634.452C532.208 634.463 526.421 628.876 526.41 621.972C526.399 615.069 532.169 609.463 539.296 609.452C546.424 609.441 552.211 615.028 552.222 621.932Z" fill="#ffffff" fill-rule="nonzero" opacity="1" stroke="#000000" stroke-linecap="butt" stroke-linejoin="miter" stroke-width="1.65053" vectornator:layerName="Oval 14"/>
</g>
<g opacity="1" vectornator:layerName="Group 9">
<path d="M539.352 702.015C550.398 701.997 559.338 693.029 559.321 681.983C559.303 670.937 550.335 661.997 539.289 662.015L499.539 662.077L499.602 702.077L539.352 702.015Z" fill="#000000" fill-rule="nonzero" opacity="1" stroke="#000000" stroke-linecap="butt" stroke-linejoin="miter" stroke-width="1.65053" vectornator:layerName="Curve 1"/>
<path d="M552.222 681.994C552.233 688.898 546.463 694.503 539.336 694.515C532.208 694.526 526.421 688.938 526.41 682.035C526.399 675.131 532.169 669.526 539.296 669.515C546.424 669.503 552.211 675.091 552.222 681.994Z" fill="#ffffff" fill-rule="nonzero" opacity="1" stroke="#000000" stroke-linecap="butt" stroke-linejoin="miter" stroke-width="1.65053" vectornator:layerName="Oval 14"/>
</g>
<g opacity="1" vectornator:layerName="Group 1">
<path d="M539.289 764.864C550.335 764.864 559.289 755.909 559.289 744.864C559.289 733.818 550.335 724.864 539.289 724.864L499.539 724.864L499.539 764.864L539.289 764.864Z" fill="#000000" fill-rule="nonzero" opacity="1" stroke="#000000" stroke-linecap="butt" stroke-linejoin="miter" stroke-width="1.65053" vectornator:layerName="Curve 1"/>
<path d="M552.191 744.864C552.191 751.767 546.412 757.364 539.285 757.364C532.157 757.364 526.379 751.767 526.379 744.864C526.379 737.96 532.157 732.364 539.285 732.364C546.412 732.364 552.191 737.96 552.191 744.864Z" fill="#ffffff" fill-rule="nonzero" opacity="1" stroke="#000000" stroke-linecap="butt" stroke-linejoin="miter" stroke-width="1.65053" vectornator:layerName="Oval 14"/>
</g>
<path d="M610.751 761.522L559.321 811.276" fill="none" opacity="1" stroke="#000000" stroke-linecap="round" stroke-linejoin="miter" stroke-width="6" vectornator:layerName="Line 15"/>
<path d="M588.367 711.768L554.721 749.447" fill="none" opacity="1" stroke="#000000" stroke-linecap="round" stroke-linejoin="miter" stroke-width="6" vectornator:layerName="Line 2"/>
<path d="M588.367 612.323L588.367 710.181" fill="none" opacity="1" stroke="#000000" stroke-linecap="round" stroke-linejoin="miter" stroke-width="6" vectornator:layerName="Line 1"/>
<path d="M610.613 670.411L610.751 761.522" fill="none" opacity="1" stroke="#000000" stroke-linecap="round" stroke-linejoin="miter" stroke-width="6" vectornator:layerName="Line 14"/>
<path d="M980.136 534.86L1039.41 492.939" fill="none" opacity="1" stroke="#000000" stroke-linecap="round" stroke-linejoin="miter" stroke-width="6" vectornator:layerName="Line 13"/>
<path d="M980.136 596.972L1037.56 554.86" fill="none" opacity="1" stroke="#000000" stroke-linecap="round" stroke-linejoin="miter" stroke-width="6" vectornator:layerName="Line 11"/>
<path d="M992.767 656.213L1037.56 622.015" fill="none" opacity="1" stroke="#000000" stroke-linecap="round" stroke-linejoin="miter" stroke-width="6" vectornator:layerName="Line 9"/>
<path d="M980.136 738.316L1039.41 682.046" fill="none" opacity="1" stroke="#000000" stroke-linecap="round" stroke-linejoin="miter" stroke-width="6" vectornator:layerName="Line 2"/>
<path d="M793.881 738.316L980.136 738.316" fill="none" opacity="1" stroke="#000000" stroke-linecap="round" stroke-linejoin="miter" stroke-width="6" vectornator:layerName="Line 1"/>
<path d="M823.797 534.86L980.136 534.797" fill="none" opacity="1" stroke="#000000" stroke-linecap="round" stroke-linejoin="miter" stroke-width="6" vectornator:layerName="Line 12"/>
<path d="M823.797 596.972L980.136 596.972" fill="none" opacity="1" stroke="#000000" stroke-linecap="round" stroke-linejoin="miter" stroke-width="6" vectornator:layerName="Line 10"/>
<path d="M823.797 656.213L993.131 656.213" fill="none" opacity="1" stroke="#000000" stroke-linecap="round" stroke-linejoin="miter" stroke-width="6" vectornator:layerName="Line 8"/>
<path d="M767.599 711.768L793.881 738.316" fill="none" opacity="1" stroke="#000000" stroke-linecap="round" stroke-linejoin="miter" stroke-width="6" vectornator:layerName="Line 1"/>
<path d="M656.353 711.768L753.401 811.276" fill="none" opacity="1" stroke="#000000" stroke-linecap="round" stroke-linejoin="miter" stroke-width="6" vectornator:layerName="Line 6"/>
<path d="M712.631 711.768L767.599 764.864" fill="none" opacity="1" stroke="#000000" stroke-linecap="round" stroke-linejoin="miter" stroke-width="6" vectornator:layerName="Line 3"/>
<path d="M767.599 764.864L1009.77 764.864" fill="none" opacity="1" stroke="#000000" stroke-linecap="round" stroke-linejoin="miter" stroke-width="6" vectornator:layerName="Line 4"/>
<path d="M1009.77 764.864L1037.56 744.864" fill="none" opacity="1" stroke="#000000" stroke-linecap="round" stroke-linejoin="miter" stroke-width="6" vectornator:layerName="Line 5"/>
<path d="M604.562 591.338L588.367 611.17" fill="none" opacity="1" stroke="#000000" stroke-linecap="round" stroke-linejoin="miter" stroke-width="6" vectornator:layerName="Line 1"/>
<path d="M753.401 811.283L1039.41 811.283" fill="none" opacity="1" stroke="#000000" stroke-linecap="round" stroke-linejoin="miter" stroke-width="6" vectornator:layerName="Line 7"/>
<path d="M609.657 524.908L578.804 554.86" fill="none" opacity="1" stroke="#000000" stroke-linecap="round" stroke-linejoin="miter" stroke-width="6" vectornator:layerName="Line 16"/>
<path d="M578.804 568.727L579.811 651.422" fill="none" opacity="1" stroke="#000000" stroke-linecap="round" stroke-linejoin="miter" stroke-width="6" vectornator:layerName="Line 17"/>
<path d="M578.804 568.26L579.154 554.86" fill="none" opacity="1" stroke="#000000" stroke-linecap="round" stroke-linejoin="miter" stroke-width="6" vectornator:layerName="Line 19"/>
<path d="M579.811 651.422L554.721 684.886" fill="none" opacity="1" stroke="#000000" stroke-linecap="round" stroke-linejoin="miter" stroke-width="6" vectornator:layerName="Line 18"/>
<path d="M554.721 622.015L568.79 602.015" fill="none" opacity="1" stroke="#000000" stroke-linecap="round" stroke-linejoin="miter" stroke-width="6" vectornator:layerName="Line 20"/>
<path d="M568.79 602.015L568.79 524.908" fill="none" opacity="1" stroke="#000000" stroke-linecap="round" stroke-linejoin="miter" stroke-width="6" vectornator:layerName="Line 21"/>
<path d="M568.79 524.908L610.613 482.761" fill="none" opacity="1" stroke="#000000" stroke-linecap="round" stroke-linejoin="miter" stroke-width="6" vectornator:layerName="Line 22"/>
<path d="M610.751 482.761L647.43 482.761" fill="none" opacity="1" stroke="#000000" stroke-linecap="round" stroke-linejoin="miter" stroke-width="6" vectornator:layerName="Line 23"/>
<path d="M538.468 539.884L621.155 455.612" fill="none" opacity="1" stroke="#000000" stroke-linecap="round" stroke-linejoin="miter" stroke-width="6" vectornator:layerName="Line 24"/>
<path d="M621.155 455.612L698.433 455.612" fill="none" opacity="1" stroke="#000000" stroke-linecap="round" stroke-linejoin="miter" stroke-width="6" vectornator:layerName="Line 25"/>
<path d="M698.433 455.612L718.186 472.908" fill="none" opacity="1" stroke="#000000" stroke-linecap="round" stroke-linejoin="miter" stroke-width="6" vectornator:layerName="Line 26"/>
<path d="M554.721 492.939L565.387 492.939" fill="none" opacity="1" stroke="#000000" stroke-linecap="round" stroke-linejoin="miter" stroke-width="6" vectornator:layerName="Line 27"/>
<path d="M565.387 492.908L615.925 443.354" fill="none" opacity="1" stroke="#000000" stroke-linecap="round" stroke-linejoin="miter" stroke-width="6" vectornator:layerName="Line 28"/>
<path d="M615.925 443.354L742.839 443.354" fill="none" opacity="1" stroke="#000000" stroke-linecap="round" stroke-linejoin="miter" stroke-width="6" vectornator:layerName="Line 29"/>
<path d="M767.599 472.908L742.839 443.354" fill="none" opacity="1" stroke="#000000" stroke-linecap="round" stroke-linejoin="miter" stroke-width="6" vectornator:layerName="Line 30"/>
<path d="M670.551 669.768L670.551 711.768L642.155 711.768L642.155 669.768L670.551 669.768Z" fill="#adadad" fill-rule="nonzero" opacity="1" stroke="#000000" stroke-linecap="butt" stroke-linejoin="miter" stroke-width="1.65053" vectornator:layerName="Rectangle 9"/>
<path d="M726.83 669.768L726.83 711.768L698.433 711.768L698.433 669.768L726.83 669.768Z" fill="#adadad" fill-rule="nonzero" opacity="1" stroke="#000000" stroke-linecap="butt" stroke-linejoin="miter" stroke-width="1.65053" vectornator:layerName="Rectangle 14"/>
<path d="M781.797 669.768L781.797 711.768L753.401 711.768L753.401 669.768L781.797 669.768Z" fill="#adadad" fill-rule="nonzero" opacity="1" stroke="#000000" stroke-linecap="butt" stroke-linejoin="miter" stroke-width="1.65053" vectornator:layerName="Rectangle 13"/>
<path d="M781.797 468.709L781.797 510.709L753.401 510.709L753.401 468.709L781.797 468.709Z" fill="#adadad" fill-rule="nonzero" opacity="1" stroke="#000000" stroke-linecap="butt" stroke-linejoin="miter" stroke-width="1.65053" vectornator:layerName="Rectangle 12"/>
<path d="M726.83 468.709L726.83 510.709L698.433 510.709L698.433 468.709L726.83 468.709Z" fill="#adadad" fill-rule="nonzero" opacity="1" stroke="#000000" stroke-linecap="butt" stroke-linejoin="miter" stroke-width="1.65053" vectornator:layerName="Rectangle 11"/>
<path d="M670.551 468.709L670.551 510.709L642.155 510.709L642.155 468.709L670.551 468.709Z" fill="#adadad" fill-rule="nonzero" opacity="1" stroke="#000000" stroke-linecap="butt" stroke-linejoin="miter" stroke-width="1.65053" vectornator:layerName="Rectangle 10"/>
<path d="M600.155 520.662L642.155 520.662L642.155 549.058L600.155 549.058L600.155 520.662Z" fill="#adadad" fill-rule="nonzero" opacity="1" stroke="#000000" stroke-linecap="butt" stroke-linejoin="miter" stroke-width="1.65053" vectornator:layerName="Rectangle 4"/>
<path d="M600.155 582.774L642.155 582.774L642.155 611.17L600.155 611.17L600.155 582.774Z" fill="#adadad" fill-rule="nonzero" opacity="1" stroke="#000000" stroke-linecap="butt" stroke-linejoin="miter" stroke-width="1.65053" vectornator:layerName="Rectangle 8"/>
<path d="M600.155 642.015L642.155 642.015L642.155 670.411L600.155 670.411L600.155 642.015Z" fill="#adadad" fill-rule="nonzero" opacity="1" stroke="#000000" stroke-linecap="butt" stroke-linejoin="miter" stroke-width="1.65053" vectornator:layerName="Rectangle 7"/>
<path d="M781.797 642.015L823.797 642.015L823.797 670.411L781.797 670.411L781.797 642.015Z" fill="#adadad" fill-rule="nonzero" opacity="1" stroke="#000000" stroke-linecap="butt" stroke-linejoin="miter" stroke-width="1.65053" vectornator:layerName="Rectangle 6"/>
<path d="M780.167 582.774L823.797 582.774L823.797 611.17L780.167 611.17L780.167 582.774Z" fill="#adadad" fill-rule="nonzero" opacity="1" stroke="#000000" stroke-linecap="butt" stroke-linejoin="miter" stroke-width="1.65053" vectornator:layerName="Rectangle 5"/>
<path d="M781.797 520.662L823.797 520.662L823.797 549.058L781.797 549.058L781.797 520.662Z" fill="#adadad" fill-rule="nonzero" opacity="1" stroke="#000000" stroke-linecap="butt" stroke-linejoin="miter" stroke-width="1.65053" vectornator:layerName="Rectangle 3"/>
<path d="M624.096 492.908L801.167 492.908L801.167 689.768L624.096 689.768L624.096 492.908Z" fill="#000000" fill-rule="nonzero" opacity="1" stroke="#000000" stroke-linecap="butt" stroke-linejoin="miter" stroke-width="1.65053" vectornator:layerName="Rectangle 2"/>
<g fill="#ffffff" opacity="1" stroke="none" vectornator:layerName="Text 1">
<path d="M665.331 588.313L639.481 549.593L666.101 549.593L677.321 571.043L691.181 549.593L717.801 549.593L690.411 588.313L721.321 632.533L695.031 632.533L678.421 605.473L658.951 632.533L632.881 632.533L665.331 588.313Z"/>
<path d="M775.551 570.823C773.205 568.916 770.858 567.505 768.511 566.588C766.165 565.671 763.891 565.213 761.691 565.213C758.905 565.213 756.631 565.873 754.871 567.193C753.111 568.513 752.231 570.236 752.231 572.363C752.231 573.83 752.671 575.04 753.551 575.993C754.431 576.946 755.586 577.771 757.016 578.468C758.446 579.165 760.06 579.77 761.856 580.283C763.653 580.796 765.431 581.346 767.191 581.933C774.231 584.28 779.383 587.415 782.646 591.338C785.91 595.261 787.541 600.376 787.541 606.683C787.541 610.936 786.826 614.786 785.396 618.233C783.966 621.68 781.876 624.631 779.126 627.088C776.376 629.545 773.003 631.451 769.006 632.808C765.01 634.165 760.481 634.843 755.421 634.843C744.935 634.843 735.218 631.726 726.271 625.493L735.511 608.113C738.738 610.973 741.928 613.1 745.081 614.493C748.235 615.886 751.351 616.583 754.431 616.583C757.951 616.583 760.573 615.776 762.296 614.163C764.02 612.55 764.881 610.716 764.881 608.663C764.881 607.416 764.661 606.335 764.221 605.418C763.781 604.501 763.048 603.658 762.021 602.888C760.995 602.118 759.656 601.403 758.006 600.743C756.356 600.083 754.358 599.35 752.011 598.543C749.225 597.663 746.493 596.691 743.816 595.628C741.14 594.565 738.756 593.153 736.666 591.393C734.576 589.633 732.89 587.415 731.606 584.738C730.323 582.061 729.681 578.67 729.681 574.563C729.681 570.456 730.36 566.735 731.716 563.398C733.073 560.061 734.98 557.201 737.436 554.818C739.893 552.435 742.9 550.583 746.456 549.263C750.013 547.943 753.991 547.283 758.391 547.283C762.498 547.283 766.788 547.851 771.261 548.988C775.735 550.125 780.025 551.793 784.131 553.993L775.551 570.823Z"/>
</g>
</g>
</svg>
