<?xml version="1.0" encoding="UTF-8" standalone="no"?>
<!DOCTYPE svg PUBLIC "-//W3C//DTD SVG 1.1//EN" "http://www.w3.org/Graphics/SVG/1.1/DTD/svg11.dtd">
<!-- Created with Vectornator (http://vectornator.io/) -->
<svg height="100%" stroke-miterlimit="10" style="fill-rule:nonzero;clip-rule:evenodd;stroke-linecap:round;stroke-linejoin:round;" version="1.1" viewBox="599.329 467.884 225.293 244.71" width="100%" xml:space="preserve" xmlns="http://www.w3.org/2000/svg" xmlns:vectornator="http://vectornator.io" xmlns:xlink="http://www.w3.org/1999/xlink">
<defs/>
<g id="Chip" vectornator:layerName="Chip">
<path d="M670.551 669.768L670.551 711.768L642.155 711.768L642.155 669.768L670.551 669.768Z" fill="#adadad" fill-rule="nonzero" opacity="1" stroke="#000000" stroke-linecap="butt" stroke-linejoin="miter" stroke-width="1.65053" vectornator:layerName="Rectangle 9"/>
<path d="M726.83 669.768L726.83 711.768L698.433 711.768L698.433 669.768L726.83 669.768Z" fill="#adadad" fill-rule="nonzero" opacity="1" stroke="#000000" stroke-linecap="butt" stroke-linejoin="miter" stroke-width="1.65053" vectornator:layerName="Rectangle 14"/>
<path d="M781.797 669.768L781.797 711.768L753.401 711.768L753.401 669.768L781.797 669.768Z" fill="#adadad" fill-rule="nonzero" opacity="1" stroke="#000000" stroke-linecap="butt" stroke-linejoin="miter" stroke-width="1.65053" vectornator:layerName="Rectangle 13"/>
<path d="M781.797 468.709L781.797 510.709L753.401 510.709L753.401 468.709L781.797 468.709Z" fill="#adadad" fill-rule="nonzero" opacity="1" stroke="#000000" stroke-linecap="butt" stroke-linejoin="miter" stroke-width="1.65053" vectornator:layerName="Rectangle 12"/>
<path d="M726.83 468.709L726.83 510.709L698.433 510.709L698.433 468.709L726.83 468.709Z" fill="#adadad" fill-rule="nonzero" opacity="1" stroke="#000000" stroke-linecap="butt" stroke-linejoin="miter" stroke-width="1.65053" vectornator:layerName="Rectangle 11"/>
<path d="M670.551 468.709L670.551 510.709L642.155 510.709L642.155 468.709L670.551 468.709Z" fill="#adadad" fill-rule="nonzero" opacity="1" stroke="#000000" stroke-linecap="butt" stroke-linejoin="miter" stroke-width="1.65053" vectornator:layerName="Rectangle 10"/>
<path d="M600.155 520.662L642.155 520.662L642.155 549.058L600.155 549.058L600.155 520.662Z" fill="#adadad" fill-rule="nonzero" opacity="1" stroke="#000000" stroke-linecap="butt" stroke-linejoin="miter" stroke-width="1.65053" vectornator:layerName="Rectangle 4"/>
<path d="M600.155 582.774L642.155 582.774L642.155 611.17L600.155 611.17L600.155 582.774Z" fill="#adadad" fill-rule="nonzero" opacity="1" stroke="#000000" stroke-linecap="butt" stroke-linejoin="miter" stroke-width="1.65053" vectornator:layerName="Rectangle 8"/>
<path d="M600.155 642.015L642.155 642.015L642.155 670.411L600.155 670.411L600.155 642.015Z" fill="#adadad" fill-rule="nonzero" opacity="1" stroke="#000000" stroke-linecap="butt" stroke-linejoin="miter" stroke-width="1.65053" vectornator:layerName="Rectangle 7"/>
<path d="M781.797 642.015L823.797 642.015L823.797 670.411L781.797 670.411L781.797 642.015Z" fill="#adadad" fill-rule="nonzero" opacity="1" stroke="#000000" stroke-linecap="butt" stroke-linejoin="miter" stroke-width="1.65053" vectornator:layerName="Rectangle 6"/>
<path d="M780.167 582.774L823.797 582.774L823.797 611.17L780.167 611.17L780.167 582.774Z" fill="#adadad" fill-rule="nonzero" opacity="1" stroke="#000000" stroke-linecap="butt" stroke-linejoin="miter" stroke-width="1.65053" vectornator:layerName="Rectangle 5"/>
<path d="M781.797 520.662L823.797 520.662L823.797 549.058L781.797 549.058L781.797 520.662Z" fill="#adadad" fill-rule="nonzero" opacity="1" stroke="#000000" stroke-linecap="butt" stroke-linejoin="miter" stroke-width="1.65053" vectornator:layerName="Rectangle 3"/>
<path d="M624.096 492.908L801.167 492.908L801.167 689.768L624.096 689.768L624.096 492.908Z" fill="#000000" fill-rule="nonzero" opacity="1" stroke="#000000" stroke-linecap="butt" stroke-linejoin="miter" stroke-width="1.65053" vectornator:layerName="Rectangle 2"/>
<g fill="#ffffff" opacity="1" stroke="none" vectornator:layerName="Text 1">
<path d="M665.331 588.313L639.481 549.593L666.101 549.593L677.321 571.043L691.181 549.593L717.801 549.593L690.411 588.313L721.321 632.533L695.031 632.533L678.421 605.473L658.951 632.533L632.881 632.533L665.331 588.313Z"/>
<path d="M775.551 570.823C773.205 568.916 770.858 567.505 768.511 566.588C766.165 565.671 763.891 565.213 761.691 565.213C758.905 565.213 756.631 565.873 754.871 567.193C753.111 568.513 752.231 570.236 752.231 572.363C752.231 573.83 752.671 575.04 753.551 575.993C754.431 576.946 755.586 577.771 757.016 578.468C758.446 579.165 760.06 579.77 761.856 580.283C763.653 580.796 765.431 581.346 767.191 581.933C774.231 584.28 779.383 587.415 782.646 591.338C785.91 595.261 787.541 600.376 787.541 606.683C787.541 610.936 786.826 614.786 785.396 618.233C783.966 621.68 781.876 624.631 779.126 627.088C776.376 629.545 773.003 631.451 769.006 632.808C765.01 634.165 760.481 634.843 755.421 634.843C744.935 634.843 735.218 631.726 726.271 625.493L735.511 608.113C738.738 610.973 741.928 613.1 745.081 614.493C748.235 615.886 751.351 616.583 754.431 616.583C757.951 616.583 760.573 615.776 762.296 614.163C764.02 612.55 764.881 610.716 764.881 608.663C764.881 607.416 764.661 606.335 764.221 605.418C763.781 604.501 763.048 603.658 762.021 602.888C760.995 602.118 759.656 601.403 758.006 600.743C756.356 600.083 754.358 599.35 752.011 598.543C749.225 597.663 746.493 596.691 743.816 595.628C741.14 594.565 738.756 593.153 736.666 591.393C734.576 589.633 732.89 587.415 731.606 584.738C730.323 582.061 729.681 578.67 729.681 574.563C729.681 570.456 730.36 566.735 731.716 563.398C733.073 560.061 734.98 557.201 737.436 554.818C739.893 552.435 742.9 550.583 746.456 549.263C750.013 547.943 753.991 547.283 758.391 547.283C762.498 547.283 766.788 547.851 771.261 548.988C775.735 550.125 780.025 551.793 784.131 553.993L775.551 570.823Z"/>
</g>
</g>
</svg>
